<?xml version="1.0" encoding="utf-8"?>
<!-- Generator: Adobe Illustrator 15.0.0, SVG Export Plug-In . SVG Version: 6.00 Build 0)  -->
<!DOCTYPE svg PUBLIC "-//W3C//DTD SVG 1.1//EN" "http://www.w3.org/Graphics/SVG/1.1/DTD/svg11.dtd">
<svg version="1.1" id="Layer_1" xmlns="http://www.w3.org/2000/svg" xmlns:xlink="http://www.w3.org/1999/xlink" x="0px" y="0px"
	 width="750px" height="750px" viewBox="0 0 750 750" enable-background="new 0 0 750 750" xml:space="preserve">
<g>
	<polygon fill="#F3DC13" points="353.496,4.821 397.49,4.82 397.492,208.216 353.492,208.217 	"/>
	
		<rect x="283.993" y="13.837" transform="matrix(-0.9659 0.2588 -0.2588 -0.9659 631.4523 147.9283)" fill="#F2D211" width="43.991" height="203.383"/>
	
		<rect x="219.191" y="40.544" transform="matrix(-0.866 0.5 -0.5 -0.866 521.18 144.8205)" fill="#F3B91A" width="43.992" height="203.386"/>
	
		<rect x="163.508" y="83.101" transform="matrix(-0.7071 0.7071 -0.7071 -0.7071 447.3475 184.2968)" fill="#F3BA19" width="43.994" height="203.392"/>
	<polygon fill="#F2A91E" points="43.664,208.533 65.66,170.433 241.807,272.129 219.807,310.234 	"/>
	<polygon fill="#F05C23" points="11.869,299.961 23.254,257.466 219.721,310.106 208.333,352.607 	"/>
	<polygon fill="#EE4923" points="4.821,396.503 4.82,352.509 208.216,352.507 208.216,396.507 	"/>
	<polygon fill="#EA3A25" points="23,491.579 11.613,449.085 208.078,396.439 219.466,438.94 	"/>
	<polygon fill="#D12031" points="65.167,578.711 43.169,540.612 219.315,438.911 241.315,477.017 	"/>
	<polygon fill="#BA1E74" points="128.449,651.96 97.34,620.854 241.162,477.027 272.274,508.141 	"/>
	<polygon fill="#97226D" points="208.533,706.335 170.433,684.34 272.128,508.19 310.234,530.191 	"/>
	<polygon fill="#7A236A" points="299.961,738.13 257.466,726.745 310.106,530.277 352.608,541.666 	"/>
	<polygon fill="#56256B" points="396.504,745.178 352.509,745.18 352.506,541.782 396.508,541.782 	"/>
	<polygon fill="#3B286E" points="491.58,726.999 449.086,738.387 396.439,541.921 438.941,530.532 	"/>
	<polygon fill="#3B286E" points="578.711,684.832 540.613,706.83 438.91,530.685 477.018,508.684 	"/>
	<polygon fill="#37409A" points="651.961,621.55 620.854,652.659 477.027,508.838 508.141,477.725 	"/>
	<polygon fill="#224795" points="706.336,541.466 684.34,579.566 508.189,477.871 530.191,439.765 	"/>
	<polygon fill="#1A597C" points="738.131,450.037 726.746,492.532 530.277,439.894 541.666,397.391 	"/>
	<polygon fill="#1E6D60" points="745.178,353.495 745.18,397.488 541.781,397.493 541.783,353.491 	"/>
	<polygon fill="#67AD44" points="727,258.419 738.387,300.912 541.92,353.561 530.533,311.058 	"/>
	<polygon fill="#67AF45" points="684.832,171.287 706.83,209.385 530.684,311.089 508.684,272.981 	"/>
	<polygon fill="#9BC941" points="621.551,98.038 652.658,129.144 508.838,272.973 477.725,241.857 	"/>
	<polygon fill="#C4D434" points="541.467,43.663 579.566,65.658 477.871,241.809 439.766,219.807 	"/>
	<polygon fill="#EFE230" points="450.037,11.868 492.531,23.252 439.895,219.722 397.391,208.332 	"/>
</g>
<polygon fill="#616058" points="476.697,364.252 476.698,385.749 273.303,385.75 273.302,364.25 "/>
<polygon fill="#616058" points="364.252,273.303 385.749,273.302 385.75,476.697 364.25,476.698 "/>
<g display="none">
	
		<circle display="inline" fill="none" stroke="#000000" stroke-width="9" stroke-miterlimit="10" stroke-dasharray="53.2078,53.2078" cx="372.59" cy="372.59" r="372.59"/>
</g>
</svg>
